<svg width="35" height="35" viewBox="0 0 35 35" fill="none" xmlns="http://www.w3.org/2000/svg">
<g clip-path="url(#clip0_310_312)">
<path d="M16.46 13.14C17.8685 12.4331 18.9972 11.2715 19.6635 9.84331C20.3299 8.41512 20.4947 6.80387 20.1315 5.27033C19.7682 3.73679 18.8981 2.3707 17.662 1.39314C16.4258 0.415586 14.8959 -0.116226 13.32 -0.116226C11.744 -0.116226 10.2141 0.415586 8.97796 1.39314C7.7418 2.3707 6.87169 3.73679 6.50844 5.27033C6.14519 6.80387 6.31006 8.41512 6.97637 9.84331C7.64268 11.2715 8.77143 12.4331 10.18 13.14C7.18848 13.9979 4.56615 15.824 2.72392 18.3322C0.881681 20.8404 -0.07635 23.8889 -4.27831e-05 27H26.64C26.7163 23.8889 25.7582 20.8404 23.916 18.3322C22.0738 15.824 19.4514 13.9979 16.46 13.14Z" fill="#E71356"/>
<path d="M24.13 35C30.1333 35 35 30.1333 35 24.13C35 18.1267 30.1333 13.26 24.13 13.26C18.1267 13.26 13.26 18.1267 13.26 24.13C13.26 30.1333 18.1267 35 24.13 35Z" fill="#AB99FF"/>
<path d="M19.45 14.34C17.1464 15.4283 15.3012 17.2954 14.24 19.6117C13.1788 21.928 12.9699 24.5447 13.65 27H26.65C26.6898 24.4391 26.0431 21.9143 24.7769 19.6879C23.5107 17.4615 21.6714 15.6149 19.45 14.34Z" fill="#5C00DC"/>
</g>
<defs>
<clipPath id="clip0_310_312">
<rect width="35" height="35" fill="white"/>
</clipPath>
</defs>
</svg>
