<svg width="16" height="16" viewBox="0 0 16 16" fill="none" xmlns="http://www.w3.org/2000/svg">
<path fill-rule="evenodd" clip-rule="evenodd" d="M10.5033 9.50335H9.97665L9.78998 9.32335C10.4433 8.56335 10.8366 7.57668 10.8366 6.50335C10.8366 4.11001 8.89665 2.17001 6.50332 2.17001C4.10998 2.17001 2.16998 4.11001 2.16998 6.50335C2.16998 8.89668 4.10998 10.8367 6.50332 10.8367C7.57665 10.8367 8.56332 10.4433 9.32332 9.79001L9.50332 9.97668V10.5033L12.8366 13.83L13.83 12.8367L10.5033 9.50335ZM6.50332 9.50335C4.84332 9.50335 3.50332 8.16335 3.50332 6.50335C3.50332 4.84335 4.84332 3.50335 6.50332 3.50335C8.16332 3.50335 9.50332 4.84335 9.50332 6.50335C9.50332 8.16335 8.16332 9.50335 6.50332 9.50335Z" fill="#777777"/>
</svg>
